:SAMPLES-PER-SECOND 25
:FULLY-SPECIFIED
:DEGREES
492
root  -2.62245 51.8446 -49.1934 37.5297 20.4268 14.6396
RightUpLeg  -70.5691 4.17269 15.6539
RightLeg  121.032 8.07075 -11.5338
RightFoot  -16.2112 -0.687215 -13.5289
RightToes  2.84633e-005 7.89722e-005 -0.000426369
Spine  14.4778 -3.70565 -3.65409
Spine1  29.3899 -6.34164 -3.40697
HEad  5.42633 -13.7918 1.14528
LeftShoulder1  -3.88251e-019 0 -3.92111e-022
LeftArm  -33.5825 -40.7558 -56.9322
LeftForeArm  5.01954 2.37991 0.766237
LeftHand  -1.4798 -2.31304 22.3201
RightShoulder  7.45443e-017 -2.42657e-020 1.96277e-018
RightArm  -28.4134 40.289 62.9389
RightForeArm  -7.94768 22.3938 4.84743
RightHand  -1.26755 15.5317 -7.44384
LeftUpLeg  -38.3026 21.674 -0.444979
LeftLeg  58.1323 11.9399 20.3006
LeftFoot  -21.9749 0.781626 6.96676
LeftToes  3.91355e-005 3.11907e-005 -4.10385e-006
493
root  -2.69802 52.1215 -48.7565 37.7763 19.4469 16.1781
RightUpLeg  -69.0849 3.63935 14.4116
RightLeg  119.776 8.12831 -12.1894
RightFoot  -16.2148 -0.77586 -15.5585
RightToes  2.84633e-005 7.89722e-005 -0.000426369
Spine  14.3556 -3.98302 -3.40293
Spine1  29.1591 -7.06891 -3.11214
HEad  4.2195 -12.8485 1.40359
LeftShoulder1  -3.88251e-019 0 -3.92111e-022
LeftArm  -32.25 -40.1816 -59.5522
LeftForeArm  4.98522 2.50324 0.0393291
LeftHand  -1.53758 -4.02105 19.1464
RightShoulder  7.45443e-017 -2.42657e-020 1.96277e-018
RightArm  -24.9972 41.7487 63.9704
RightForeArm  -8.49093 20.4354 3.46687
RightHand  -1.73039 16.4401 -9.58393
LeftUpLeg  -37.0062 21.6863 -0.0536961
LeftLeg  60.3977 11.1922 20.8812
LeftFoot  -23.1808 0.86634 7.00477
LeftToes  3.91355e-005 3.11907e-005 -4.10385e-006
494
root  -2.77411 52.3789 -48.3646 38.2285 18.5875 17.4996
RightUpLeg  -67.9139 2.9525 13.0414
RightLeg  118.915 7.78859 -12.0717
RightFoot  -16.2648 -0.726291 -14.2498
RightToes  2.84633e-005 7.89722e-005 -0.000426369
Spine  14.2631 -4.17554 -3.17506
Spine1  28.9813 -7.59895 -2.79103
HEad  2.9089 -12.2155 1.94637
LeftShoulder1  -3.88251e-019 0 -3.92111e-022
LeftArm  -29.0211 -37.8773 -60.9791
LeftForeArm  4.04453 2.12881 -1.74304
LeftHand  -1.32305 -5.55662 14.2411
RightShoulder  7.45443e-017 -2.42657e-020 1.96277e-018
RightArm  -21.7679 43.0223 64.5607
RightForeArm  -9.43688 19.0493 2.58528
RightHand  -2.04318 16.7933 -11.0723
LeftUpLeg  -36.2868 21.0049 0.457565
LeftLeg  62.8938 10.3756 21.5834
LeftFoot  -24.2533 0.954243 7.13308
LeftToes  3.91355e-005 3.11907e-005 -4.10385e-006
495
root  -2.83999 52.624 -48.0048 38.4746 18.0084 18.5298
RightUpLeg  -66.644 2.85163 11.494
RightLeg  118.073 7.27651 -11.6416
RightFoot  -16.5237 -0.685885 -12.6396
RightToes  2.84633e-005 7.89722e-005 -0.000426369
Spine  14.0326 -4.31147 -2.79448
Spine1  28.5096 -8.05457 -2.17537
HEad  3.12846 -11.441 2.09742
LeftShoulder1  -3.88251e-019 0 -3.92111e-022
LeftArm  -27.316 -34.2725 -61.6851
LeftForeArm  4.50076 -0.0550651 -4.38864
LeftHand  -1.05127 -6.00018 11.0112
RightShoulder  7.45443e-017 -2.42657e-020 1.96277e-018
RightArm  -18.115 44.2969 64.8659
RightForeArm  -10.1101 16.9399 1.76017
RightHand  -2.24484 16.6986 -12.1537
LeftUpLeg  -35.8083 19.4643 1.46728
LeftLeg  65.9065 9.3415 22.4074
LeftFoot  -25.1586 1.15062 8.2289
LeftToes  3.91355e-005 3.11907e-005 -4.10385e-006
496
root  -2.88357 52.8909 -47.6793 38.7303 17.8886 19.221
RightUpLeg  -65.4583 2.90732 10.001
RightLeg  117.014 6.93661 -11.57
RightFoot  -17.2597 -0.744847 -12.106
RightToes  2.84633e-005 7.89722e-005 -0.000426369
Spine  13.8816 -4.23754 -1.96552
Spine1  28.1597 -8.17278 -0.724589
HEad  3.86989 -11.6677 1.84685
LeftShoulder1  -3.88251e-019 0 -3.92111e-022
LeftArm  -26.6795 -31.3865 -63.5191
LeftForeArm  6.01944 -2.16586 -4.90003
LeftHand  -0.974028 -6.3434 9.94872
RightShoulder  7.45443e-017 -2.42657e-020 1.96277e-018
RightArm  -16.9687 45.413 63.6439
RightForeArm  -9.36584 15.1951 1.25958
RightHand  -2.50604 16.5374 -13.5979
LeftUpLeg  -35.9399 17.072 2.94934
LeftLeg  69.5703 8.10062 23.6376
LeftFoot  -26.3609 1.40581 9.43391
LeftToes  3.91355e-005 3.11907e-005 -4.10385e-006
497
root  -2.89553 53.1587 -47.384 38.6377 17.8162 20.1417
RightUpLeg  -63.8957 2.30638 8.30919
RightLeg  116.233 6.77118 -11.6551
RightFoot  -17.7107 -0.727572 -10.8839
RightToes  2.84633e-005 7.89722e-005 -0.000426369
Spine  13.7474 -4.03506 -1.21295
Spine1  27.8375 -8.01525 0.454319
HEad  4.45028 -12.5057 1.86434
LeftShoulder1  -3.88251e-019 0 -3.92111e-022
LeftArm  -25.9661 -27.2946 -64.8727
LeftForeArm  4.69501 -5.17362 -5.50322
LeftHand  -0.945018 -6.15137 9.81627
RightShoulder  7.45443e-017 -2.42657e-020 1.96277e-018
RightArm  -16.7201 45.4154 62.728
RightForeArm  -8.52919 13.6013 0.471077
RightHand  -2.69566 16.5883 -14.5508
LeftUpLeg  -36.1787 13.9501 4.28123
LeftLeg  73.9604 5.89623 23.2712
LeftFoot  -28.5362 1.46265 8.51286
LeftToes  3.91355e-005 3.11907e-005 -4.10385e-006
498
root  -2.85608 53.4189 -47.1857 38.3189 17.8867 21.3347
RightUpLeg  -62.1886 1.26342 6.69585
RightLeg  115.577 6.40056 -11.3084
RightFoot  -17.55 -0.685566 -10.4351
RightToes  2.84633e-005 7.89722e-005 -0.000426369
Spine  13.8052 -3.61751 -0.488159
Spine1  27.898 -7.38898 1.46643
HEad  4.33155 -13.8721 2.27133
LeftShoulder1  -3.88251e-019 0 -3.92111e-022
LeftArm  -25.509 -23.1876 -65.7834
LeftForeArm  3.33519 -9.25271 -6.23091
LeftHand  -0.995386 -5.915 10.5151
RightShoulder  7.45443e-017 -2.42657e-020 1.96277e-018
RightArm  -18.2709 44.8634 59.5185
RightForeArm  -8.43341 12.7848 0.862763
RightHand  -2.77537 16.0111 -15.3495
LeftUpLeg  -36.9606 9.87179 5.33807
LeftLeg  79.4861 3.32649 22.7371
LeftFoot  -30.609 1.52327 7.86871
LeftToes  3.91355e-005 3.11907e-005 -4.10385e-006
499
root  -2.7919 53.6609 -47.0781 37.6675 18.1361 21.9479
RightUpLeg  -60.647 0.374314 5.66014
RightLeg  114.877 6.38834 -11.6257
RightFoot  -17.6362 -0.744795 -11.2664
RightToes  2.84633e-005 7.89722e-005 -0.000426369
Spine  14.0011 -3.09573 0.481196
Spine1  28.2278 -6.53107 2.74866
HEad  3.50626 -15.1589 2.3164
LeftShoulder1  -3.88251e-019 0 -3.92111e-022
LeftArm  -24.5981 -18.963 -65.9159
LeftForeArm  1.53347 -13.2619 -6.02528
LeftHand  -1.10044 -6.28287 11.2418
RightShoulder  7.45443e-017 -2.42657e-020 1.96277e-018
RightArm  -20.3806 44.4426 55.6918
RightForeArm  -8.76801 11.6733 1.04125
RightHand  -2.71953 15.9008 -15.128
LeftUpLeg  -38.5863 6.10332 7.26669
LeftLeg  86.2371 0.433155 21.4304
LeftFoot  -33.1504 1.43696 6.42706
LeftToes  3.91355e-005 3.11907e-005 -4.10385e-006
500
root  -2.67827 53.8188 -47.0861 37.2308 18.8945 22.7918
RightUpLeg  -60.0888 -1.1358 4.41117
RightLeg  114.563 6.04575 -11.129
RightFoot  -19.307 -0.651224 -7.55657
RightToes  2.84633e-005 7.89722e-005 -0.000426369
Spine  14.0072 -2.76735 1.48759
Spine1  28.1951 -6.00339 4.15053
HEad  3.35025 -15.9993 2.26239
LeftShoulder1  -3.88251e-019 0 -3.92111e-022
LeftArm  -24.4671 -13.956 -66.0397
LeftForeArm  -1.35949 -17.008 -5.11781
LeftHand  -1.09369 -5.6223 11.8185
RightShoulder  7.45443e-017 -2.42657e-020 1.96277e-018
RightArm  -22.2489 43.557 52.8117
RightForeArm  -8.87733 10.5269 0.437062
RightHand  -2.65285 15.6896 -14.9134
LeftUpLeg  -41.5613 1.85748 9.87929
LeftLeg  93.7922 -2.36386 19.8237
LeftFoot  -35.5628 1.38409 5.44604
LeftToes  3.91355e-005 3.11907e-005 -4.10385e-006
501
root  -2.52758 53.9583 -47.1471 36.9717 19.6464 23.42
RightUpLeg  -59.4826 -2.62504 3.56374
RightLeg  114.396 5.86646 -10.8641
RightFoot  -19.9823 -0.653313 -6.85049
RightToes  2.84633e-005 7.89722e-005 -0.000426369
Spine  13.8844 -2.46557 2.54071
Spine1  27.9132 -5.49672 5.55302
HEad  3.94918 -16.4871 1.69249
LeftShoulder1  -3.88251e-019 0 -3.92111e-022
LeftArm  -27.7388 -9.35422 -65.8083
LeftForeArm  -2.97154 -18.2117 -4.33886
LeftHand  -1.17518 -5.38877 12.9231
RightShoulder  7.45443e-017 -2.42657e-020 1.96277e-018
RightArm  -24.4953 42.6726 49.9242
RightForeArm  -8.42761 9.08549 -0.0609621
RightHand  -2.75749 16.2125 -15.1171
LeftUpLeg  -45.5952 -1.5568 13.5599
LeftLeg  100.959 -4.6228 18.2236
LeftFoot  -37.5545 1.70955 6.35527
LeftToes  3.91355e-005 3.11907e-005 -4.10385e-006
502
root  -2.27644 54.0702 -47.2667 36.4104 19.6384 24.1509
RightUpLeg  -58.5853 -3.86141 1.85377
RightLeg  114.752 5.6656 -10.3118
RightFoot  -20.3017 -0.628688 -6.26405
RightToes  2.84633e-005 7.89722e-005 -0.000426369
Spine  13.982 -1.98615 3.16389
Spine1  28.1179 -4.5742 6.19236
HEad  4.1209 -16.8162 1.4736
LeftShoulder1  -3.88251e-019 0 -3.92111e-022
LeftArm  -31.9215 -5.6556 -65.2258
LeftForeArm  -1.42345 -18.5161 -3.33851
LeftHand  -1.27158 -4.83962 14.6586
RightShoulder  7.45443e-017 -2.42657e-020 1.96277e-018
RightArm  -26.7326 41.2645 46.7944
RightForeArm  -9.06818 8.63601 -0.336878
RightHand  -2.61475 16.018 -14.491
LeftUpLeg  -49.9639 -3.3334 16.8784
LeftLeg  107.542 -6.08148 15.8627
LeftFoot  -40.673 1.32019 4.08954
LeftToes  3.91355e-005 3.11907e-005 -4.10385e-006
503
root  -2.02324 54.2096 -47.3849 35.4256 19.1729 25.0074
RightUpLeg  -57.2047 -5.01935 -0.109813
RightLeg  115.015 5.5187 -9.91536
RightFoot  -20.3564 -0.599079 -5.8446
RightToes  2.84633e-005 7.89722e-005 -0.000426369
Spine  14.3396 -1.53448 3.36532
Spine1  28.8719 -3.6978 6.18714
HEad  4.04108 -16.9306 1.33398
LeftShoulder1  -3.88251e-019 0 -3.92111e-022
LeftArm  -34.8977 -3.18412 -64.5487
LeftForeArm  1.26437 -17.5702 -1.79929
LeftHand  -1.39871 -4.73182 16.2459
RightShoulder  7.45443e-017 -2.42657e-020 1.96277e-018
RightArm  -28.1816 40.4275 44.3277
RightForeArm  -9.93992 7.73421 -1.03635
RightHand  -2.51709 15.9619 -14.0079
LeftUpLeg  -54.4297 -3.28968 19.7219
LeftLeg  112.827 -6.34467 12.8257
LeftFoot  -42.8443 1.08772 2.92504
LeftToes  3.91355e-005 3.11907e-005 -4.10385e-006
